<svg width="23" height="22" viewBox="0 0 23 22" fill="none" xmlns="http://www.w3.org/2000/svg">
<path d="M11.1699 0C5.10742 0 0.169922 4.9375 0.169922 11V22H2.70117L3.01367 21.5625L9.01367 12.5625L9.16992 12.3125V9C9.16992 7.88281 10.0527 7 11.1699 7C12.2871 7 13.1699 7.88281 13.1699 9V12.3125L13.3262 12.5625L19.3262 21.5625L19.6387 22H22.1699V11C22.1699 4.9375 17.2324 0 11.1699 0ZM11.1699 2C16.1543 2 20.1699 6.01562 20.1699 11V19.1875L15.1699 11.6875V9C15.1699 6.80078 13.3691 5 11.1699 5C8.9707 5 7.16992 6.80078 7.16992 9V11.6875L2.16992 19.1875V11C2.16992 6.01562 6.18555 2 11.1699 2ZM10.1699 12V14H12.1699V12H10.1699ZM10.1699 15V17.5H12.1699V15H10.1699ZM10.1699 19V22H12.1699V19H10.1699Z" fill="#4A4A4A"/>
</svg>
